<mxfile host="Electron" agent="Mozilla/5.0 (Windows NT 10.0; Win64; x64) AppleWebKit/537.36 (KHTML, like Gecko) draw.io/26.1.1 Chrome/132.0.6834.210 Electron/34.3.3 Safari/537.36" version="26.1.1">
  <diagram name="第 1 页" id="-8Xkrqvu5eb8_tX8uIqY">
    <mxGraphModel dx="1436" dy="1008" grid="1" gridSize="10" guides="1" tooltips="1" connect="1" arrows="1" fold="1" page="1" pageScale="1" pageWidth="827" pageHeight="1169" math="0" shadow="0">
      <root>
        <mxCell id="0" />
        <mxCell id="1" parent="0" />
        <mxCell id="uwfGheAQLfwQuORfrfqV-1" value="角色表" style="rounded=1;whiteSpace=wrap;html=1;" vertex="1" parent="1">
          <mxGeometry x="140" y="170" width="100" height="50" as="geometry" />
        </mxCell>
        <mxCell id="uwfGheAQLfwQuORfrfqV-9" style="rounded=0;orthogonalLoop=1;jettySize=auto;html=1;exitX=0.5;exitY=1;exitDx=0;exitDy=0;entryX=0.5;entryY=0;entryDx=0;entryDy=0;endArrow=none;startFill=0;" edge="1" parent="1" source="uwfGheAQLfwQuORfrfqV-2" target="uwfGheAQLfwQuORfrfqV-1">
          <mxGeometry relative="1" as="geometry" />
        </mxCell>
        <mxCell id="uwfGheAQLfwQuORfrfqV-2" value="名称" style="ellipse;whiteSpace=wrap;html=1;" vertex="1" parent="1">
          <mxGeometry x="250" y="70" width="96" height="40" as="geometry" />
        </mxCell>
        <mxCell id="uwfGheAQLfwQuORfrfqV-7" style="rounded=0;orthogonalLoop=1;jettySize=auto;html=1;exitX=0.5;exitY=1;exitDx=0;exitDy=0;endArrow=none;startFill=0;entryX=0.5;entryY=0;entryDx=0;entryDy=0;" edge="1" parent="1" source="uwfGheAQLfwQuORfrfqV-3" target="uwfGheAQLfwQuORfrfqV-1">
          <mxGeometry relative="1" as="geometry" />
        </mxCell>
        <mxCell id="uwfGheAQLfwQuORfrfqV-3" value="ID" style="ellipse;whiteSpace=wrap;html=1;" vertex="1" parent="1">
          <mxGeometry x="44" y="70" width="96" height="40" as="geometry" />
        </mxCell>
        <mxCell id="uwfGheAQLfwQuORfrfqV-11" style="rounded=0;orthogonalLoop=1;jettySize=auto;html=1;exitX=0.5;exitY=0;exitDx=0;exitDy=0;endArrow=none;startFill=0;" edge="1" parent="1" source="uwfGheAQLfwQuORfrfqV-4">
          <mxGeometry relative="1" as="geometry">
            <mxPoint x="190" y="220" as="targetPoint" />
          </mxGeometry>
        </mxCell>
        <mxCell id="uwfGheAQLfwQuORfrfqV-4" value="唯一标识" style="ellipse;whiteSpace=wrap;html=1;" vertex="1" parent="1">
          <mxGeometry x="240" y="280" width="96" height="40" as="geometry" />
        </mxCell>
        <mxCell id="uwfGheAQLfwQuORfrfqV-10" style="rounded=0;orthogonalLoop=1;jettySize=auto;html=1;exitX=0.5;exitY=0;exitDx=0;exitDy=0;entryX=0.5;entryY=1;entryDx=0;entryDy=0;endArrow=none;startFill=0;" edge="1" parent="1" source="uwfGheAQLfwQuORfrfqV-5" target="uwfGheAQLfwQuORfrfqV-1">
          <mxGeometry relative="1" as="geometry" />
        </mxCell>
        <mxCell id="uwfGheAQLfwQuORfrfqV-5" value="描述" style="ellipse;whiteSpace=wrap;html=1;" vertex="1" parent="1">
          <mxGeometry x="44" y="280" width="96" height="40" as="geometry" />
        </mxCell>
        <mxCell id="uwfGheAQLfwQuORfrfqV-12" value="角色菜单（权限）关系表" style="rounded=1;whiteSpace=wrap;html=1;" vertex="1" parent="1">
          <mxGeometry x="138" y="520" width="100" height="40" as="geometry" />
        </mxCell>
        <mxCell id="uwfGheAQLfwQuORfrfqV-15" value="" style="rounded=0;orthogonalLoop=1;jettySize=auto;html=1;endArrow=none;startFill=0;" edge="1" parent="1" source="uwfGheAQLfwQuORfrfqV-13" target="uwfGheAQLfwQuORfrfqV-12">
          <mxGeometry relative="1" as="geometry" />
        </mxCell>
        <mxCell id="uwfGheAQLfwQuORfrfqV-13" value="菜单ID" style="ellipse;whiteSpace=wrap;html=1;" vertex="1" parent="1">
          <mxGeometry x="140" y="640" width="96" height="40" as="geometry" />
        </mxCell>
        <mxCell id="uwfGheAQLfwQuORfrfqV-16" value="" style="rounded=0;orthogonalLoop=1;jettySize=auto;html=1;endArrow=none;startFill=0;" edge="1" parent="1" source="uwfGheAQLfwQuORfrfqV-14" target="uwfGheAQLfwQuORfrfqV-12">
          <mxGeometry relative="1" as="geometry" />
        </mxCell>
        <mxCell id="uwfGheAQLfwQuORfrfqV-14" value="角色ID" style="ellipse;whiteSpace=wrap;html=1;" vertex="1" parent="1">
          <mxGeometry x="138" y="410" width="96" height="40" as="geometry" />
        </mxCell>
        <mxCell id="uwfGheAQLfwQuORfrfqV-19" value="系统菜单" style="rounded=1;whiteSpace=wrap;html=1;" vertex="1" parent="1">
          <mxGeometry x="727" y="140" width="100" height="50" as="geometry" />
        </mxCell>
        <mxCell id="uwfGheAQLfwQuORfrfqV-33" style="rounded=0;orthogonalLoop=1;jettySize=auto;html=1;exitX=0.5;exitY=0;exitDx=0;exitDy=0;endArrow=none;startFill=0;" edge="1" parent="1" source="uwfGheAQLfwQuORfrfqV-20" target="uwfGheAQLfwQuORfrfqV-19">
          <mxGeometry relative="1" as="geometry" />
        </mxCell>
        <mxCell id="uwfGheAQLfwQuORfrfqV-20" value="图标" style="ellipse;whiteSpace=wrap;html=1;" vertex="1" parent="1">
          <mxGeometry x="560" y="280" width="96" height="40" as="geometry" />
        </mxCell>
        <mxCell id="uwfGheAQLfwQuORfrfqV-29" style="rounded=0;orthogonalLoop=1;jettySize=auto;html=1;exitX=0.5;exitY=1;exitDx=0;exitDy=0;endArrow=none;startFill=0;" edge="1" parent="1" source="uwfGheAQLfwQuORfrfqV-21" target="uwfGheAQLfwQuORfrfqV-19">
          <mxGeometry relative="1" as="geometry" />
        </mxCell>
        <mxCell id="uwfGheAQLfwQuORfrfqV-21" value="排序" style="ellipse;whiteSpace=wrap;html=1;" vertex="1" parent="1">
          <mxGeometry x="910" y="40" width="96" height="40" as="geometry" />
        </mxCell>
        <mxCell id="uwfGheAQLfwQuORfrfqV-30" style="rounded=0;orthogonalLoop=1;jettySize=auto;html=1;exitX=0;exitY=0.5;exitDx=0;exitDy=0;entryX=1;entryY=0.5;entryDx=0;entryDy=0;endArrow=none;startFill=0;" edge="1" parent="1" source="uwfGheAQLfwQuORfrfqV-22" target="uwfGheAQLfwQuORfrfqV-19">
          <mxGeometry relative="1" as="geometry" />
        </mxCell>
        <mxCell id="uwfGheAQLfwQuORfrfqV-22" value="页面路径" style="ellipse;whiteSpace=wrap;html=1;" vertex="1" parent="1">
          <mxGeometry x="910" y="145" width="96" height="40" as="geometry" />
        </mxCell>
        <mxCell id="uwfGheAQLfwQuORfrfqV-32" value="" style="rounded=0;orthogonalLoop=1;jettySize=auto;html=1;endArrow=none;startFill=0;" edge="1" parent="1" source="uwfGheAQLfwQuORfrfqV-23" target="uwfGheAQLfwQuORfrfqV-19">
          <mxGeometry relative="1" as="geometry" />
        </mxCell>
        <mxCell id="uwfGheAQLfwQuORfrfqV-23" value="路径" style="ellipse;whiteSpace=wrap;html=1;" vertex="1" parent="1">
          <mxGeometry x="560" y="150" width="96" height="40" as="geometry" />
        </mxCell>
        <mxCell id="uwfGheAQLfwQuORfrfqV-35" style="rounded=0;orthogonalLoop=1;jettySize=auto;html=1;exitX=0.5;exitY=0;exitDx=0;exitDy=0;entryX=0.5;entryY=1;entryDx=0;entryDy=0;endArrow=none;startFill=0;" edge="1" parent="1" source="uwfGheAQLfwQuORfrfqV-24" target="uwfGheAQLfwQuORfrfqV-19">
          <mxGeometry relative="1" as="geometry" />
        </mxCell>
        <mxCell id="uwfGheAQLfwQuORfrfqV-24" value="父级ID" style="ellipse;whiteSpace=wrap;html=1;" vertex="1" parent="1">
          <mxGeometry x="910" y="280" width="96" height="40" as="geometry" />
        </mxCell>
        <mxCell id="uwfGheAQLfwQuORfrfqV-34" style="rounded=0;orthogonalLoop=1;jettySize=auto;html=1;exitX=0.5;exitY=0;exitDx=0;exitDy=0;endArrow=none;startFill=0;" edge="1" parent="1" source="uwfGheAQLfwQuORfrfqV-25">
          <mxGeometry relative="1" as="geometry">
            <mxPoint x="777" y="190" as="targetPoint" />
          </mxGeometry>
        </mxCell>
        <mxCell id="uwfGheAQLfwQuORfrfqV-25" value="描述" style="ellipse;whiteSpace=wrap;html=1;" vertex="1" parent="1">
          <mxGeometry x="729" y="280" width="96" height="40" as="geometry" />
        </mxCell>
        <mxCell id="uwfGheAQLfwQuORfrfqV-31" style="rounded=0;orthogonalLoop=1;jettySize=auto;html=1;exitX=0.5;exitY=1;exitDx=0;exitDy=0;endArrow=none;startFill=0;" edge="1" parent="1" source="uwfGheAQLfwQuORfrfqV-26">
          <mxGeometry relative="1" as="geometry">
            <mxPoint x="730" y="140" as="targetPoint" />
          </mxGeometry>
        </mxCell>
        <mxCell id="uwfGheAQLfwQuORfrfqV-26" value="名称" style="ellipse;whiteSpace=wrap;html=1;" vertex="1" parent="1">
          <mxGeometry x="560" y="40" width="96" height="40" as="geometry" />
        </mxCell>
        <mxCell id="uwfGheAQLfwQuORfrfqV-28" value="" style="rounded=0;orthogonalLoop=1;jettySize=auto;html=1;endArrow=none;startFill=0;" edge="1" parent="1" source="uwfGheAQLfwQuORfrfqV-27" target="uwfGheAQLfwQuORfrfqV-19">
          <mxGeometry relative="1" as="geometry" />
        </mxCell>
        <mxCell id="uwfGheAQLfwQuORfrfqV-27" value="ID" style="ellipse;whiteSpace=wrap;html=1;" vertex="1" parent="1">
          <mxGeometry x="729" y="40" width="96" height="40" as="geometry" />
        </mxCell>
      </root>
    </mxGraphModel>
  </diagram>
</mxfile>
